<?xml version="1.0" encoding="UTF-8"?>
<svg id="Layer_1" data-name="Layer 1" xmlns="http://www.w3.org/2000/svg" xmlns:xlink="http://www.w3.org/1999/xlink" viewBox="0 0 919.26 368.55">
  <defs>
    <style>
      .cls-1 {
        fill: url(#linear-gradient-2);
      }

      .cls-2 {
        fill: url(#linear-gradient-4);
      }

      .cls-3 {
        fill: url(#linear-gradient-3);
      }

      .cls-4 {
        fill: url(#linear-gradient-5);
      }

      .cls-5 {
        fill: url(#linear-gradient-7);
      }

      .cls-6 {
        fill: url(#linear-gradient-6);
      }

      .cls-7 {
        fill: url(#linear-gradient);
      }
    </style>
    <linearGradient id="linear-gradient" x1="159.95" y1="368.55" x2="159.95" y2="0" gradientUnits="userSpaceOnUse">
      <stop offset="0" stop-color="#ae0005"/>
      <stop offset=".19" stop-color="#7a0003"/>
      <stop offset=".37" stop-color="#4e0002"/>
      <stop offset=".55" stop-color="#2c0001"/>
      <stop offset=".72" stop-color="#130000"/>
      <stop offset=".87" stop-color="#050000"/>
      <stop offset="1" stop-color="#000"/>
    </linearGradient>
    <linearGradient id="linear-gradient-2" x1="444.5" y1="287.63" x2="444.5" y2="169.15" gradientUnits="userSpaceOnUse">
      <stop offset="0" stop-color="#ae0005"/>
      <stop offset=".19" stop-color="#7a0003"/>
      <stop offset=".37" stop-color="#4e0002"/>
      <stop offset=".55" stop-color="#2c0001"/>
      <stop offset=".72" stop-color="#130000"/>
      <stop offset=".87" stop-color="#050000"/>
      <stop offset="1" stop-color="#000"/>
    </linearGradient>
    <linearGradient id="linear-gradient-3" x1="774.39" y1="295.49" x2="774.39" y2="165.17" xlink:href="#linear-gradient-2"/>
    <linearGradient id="linear-gradient-4" x1="774.39" y1="295.49" x2="774.39" y2="165.17" xlink:href="#linear-gradient-2"/>
    <linearGradient id="linear-gradient-5" x1="774.39" y1="295.49" x2="774.39" y2="165.17" xlink:href="#linear-gradient-2"/>
    <linearGradient id="linear-gradient-6" x1="774.39" y1="295.49" x2="774.39" y2="165.17" xlink:href="#linear-gradient-2"/>
    <linearGradient id="linear-gradient-7" x1="774.39" y1="295.49" x2="774.39" y2="165.17" xlink:href="#linear-gradient-2"/>
  </defs>
  <path class="cls-7" d="M160.1,0c.85.03,10.32,7.83,80.26,66.14,43.57,36.38,79.38,66.31,79.53,66.51.21.29-1.94,2.74-7.89,9.12-4.49,4.8-8.28,8.75-8.47,8.75-.15,0-32.5-26.87-71.89-59.71l-71.55-59.73-2.49,2.09c-1.4,1.11-21.48,17.86-44.67,37.21-23.15,19.32-54.29,45.27-69.12,57.65-14.84,12.4-27.07,22.52-27.19,22.52C16.3,150.54-.09,133.05,0,132.82c.06-.11,19.81-16.66,43.91-36.76,24.12-20.12,59.9-49.96,79.5-66.31C155.67,2.86,159.19-.03,160.1,0ZM47.58,47.13v28.35l1-.86c.94-.86,38.84-33.04,38.96-33.1,0-.03.15-5.14.27-11.4l.21-11.35h-40.45v28.35ZM262.96,136.96c-5.15-4.33-39.23-32.77-66.7-55.68.02.2.02.4.02.6v52.1c0,6.6-5.4,12-12,12h-48.5c-6.6,0-12-5.4-12-12v-52.1c0-.18,0-.36.02-.54-9.93,8.29-21.69,18.09-33.07,27.58l-43.15,35.99v67.76c0,65.02.03,67.83.57,68.91.7,1.46,2.25,2.89,3.64,3.35.85.28,8.68.37,36.9.37h35.81l.15-30.44c.15-28.15.18-30.5.67-31.36.7-1.2,2.43-2.51,3.85-2.91.85-.23,9.56-.31,31.17-.31,28.49,0,30.07.02,31.25.54,1.73.74,3.34,2.63,3.73,4.37.22.94.34,11.2.34,30.81v29.44h35.29c38.26,0,36.96.06,39.17-1.54.58-.4,1.31-1.29,1.67-1.98l.64-1.22.03-67.88.03-67.86-9.53-8ZM48.16,281.58c2.05,2.39,4.62,12.34,4.62,12.34.58,1.14,1.15,34.98,1.15,43.21s-1.73,15.09-1.73,16.69,2.02,5.03,5.48,4.57c3.46-.46,5.19-2.74,5.63-6.17s-.43-7.54-1.73-15.32c-1.3-7.77-1.3-36.12-1.44-42.98-.14-6.86,9.09-8.69,9.09-8.69,0,0,8.8-.23,11.4,3.43s.29,19.66.58,27.66,3.75,12.8,5.19,12.57,4.33-3.43,3.46-12.8-.14-24.46,1.59-27.43,9.81-3.66,9.81-3.66c0,0,.58,0,8.51,3.89,7.93,3.89,3.75,48.92,3.61,64.92-.14,16,4.62,14.63,5.19,14.63s7.36,2.29,5.19-14.4c-2.16-16.69-.14-64.69-.14-64.69l.84-4.19s-78.34-5.97-76.29-3.58ZM195.77,284.87l.84,4.19s2.02,48.01-.14,64.69,4.62,14.4,5.19,14.4,5.34,1.37,5.19-14.63c-.14-16-4.33-61.04,3.61-64.92,7.93-3.89,8.51-3.89,8.51-3.89,0,0,8.08.69,9.81,3.66s2.45,18.06,1.59,27.43,2.02,12.57,3.46,12.8,4.9-4.57,5.19-12.57-2.02-24,.58-27.66,11.4-3.43,11.4-3.43c0,0,9.23,1.83,9.09,8.69-.14,6.86-.14,35.2-1.44,42.98s-2.16,11.89-1.73,15.32,2.16,5.72,5.63,6.17c3.46.46,5.48-2.97,5.48-4.57s-1.73-8.46-1.73-16.69.58-42.06,1.15-43.21c0,0,2.58-9.94,4.62-12.34s-76.29,3.58-76.29,3.58Z"/>
  <g>
    <path class="cls-1" d="M308.61,191.37c.72-.6,1.44-.6,2.16,0,7.8,6.72,13.74,14.25,17.82,22.59,4.08,8.34,6.12,16.95,6.12,25.83,0,8.4-1.92,16.71-5.76,24.93-3.84,8.22-9.78,15.69-17.82,22.41-.72.48-1.44.48-2.16,0-7.8-6.72-13.74-14.28-17.82-22.68-4.08-8.4-6.12-16.98-6.12-25.74s1.92-16.86,5.76-25.02c3.84-8.16,9.78-15.6,17.82-22.32ZM301.05,209.37c-2.52,3-3.78,7.44-3.78,13.32,0,4.68.84,9.84,2.52,15.48,1.68,5.64,4.14,11.1,7.38,16.38,3.24,5.28,7.14,9.78,11.7,13.5,1.32-1.56,2.31-3.51,2.97-5.85.66-2.34.99-4.89.99-7.65,0-4.8-.84-9.96-2.52-15.48-1.68-5.52-4.14-10.92-7.38-16.2-3.24-5.28-7.2-9.78-11.88-13.5Z"/>
    <path class="cls-1" d="M373.05,222.51c-.84.96-1.56.84-2.16-.36-2.28-4.08-4.74-7.86-7.38-11.34v71.82c0,1.08-.54,1.62-1.62,1.62h-15.84c-1.08,0-1.62-.54-1.62-1.62v-69.12l-5.04-4.32c-.84-.84-.96-1.62-.36-2.34l10.08-14.4c.6-.96,1.32-1.08,2.16-.36,2.04,1.56,3.99,3.09,5.85,4.59,1.86,1.5,3.69,3.09,5.49,4.77.6.48.9,1.14.9,1.98v3.42l9.72-14.76c.24-.48.6-.75,1.08-.81.48-.06.9.21,1.26.81,1.68,2.28,3.33,4.68,4.95,7.2,1.62,2.52,3.09,5.04,4.41,7.56.48.72.42,1.5-.18,2.34l-11.7,13.32Z"/>
    <path class="cls-1" d="M421.64,222.51c-.84.96-1.56.84-2.16-.36-2.28-4.08-4.74-7.86-7.38-11.34v71.82c0,1.08-.54,1.62-1.62,1.62h-15.84c-1.08,0-1.62-.54-1.62-1.62v-69.12l-5.04-4.32c-.84-.84-.96-1.62-.36-2.34l10.08-14.4c.6-.96,1.32-1.08,2.16-.36,2.04,1.56,3.99,3.09,5.85,4.59,1.86,1.5,3.69,3.09,5.49,4.77.6.48.9,1.14.9,1.98v3.42l9.72-14.76c.24-.48.6-.75,1.08-.81.48-.06.9.21,1.26.81,1.68,2.28,3.33,4.68,4.95,7.2,1.62,2.52,3.09,5.04,4.41,7.56.48.72.42,1.5-.18,2.34l-11.7,13.32Z"/>
    <path class="cls-1" d="M456.92,191.37c.72-.6,1.44-.6,2.16,0,7.8,6.72,13.74,14.25,17.82,22.59,4.08,8.34,6.12,16.95,6.12,25.83,0,8.4-1.92,16.71-5.76,24.93-3.84,8.22-9.78,15.69-17.82,22.41-.72.48-1.44.48-2.16,0-7.8-6.72-13.74-14.28-17.82-22.68-4.08-8.4-6.12-16.98-6.12-25.74s1.92-16.86,5.76-25.02c3.84-8.16,9.78-15.6,17.82-22.32ZM449.36,209.37c-2.52,3-3.78,7.44-3.78,13.32,0,4.68.84,9.84,2.52,15.48,1.68,5.64,4.14,11.1,7.38,16.38,3.24,5.28,7.14,9.78,11.7,13.5,1.32-1.56,2.31-3.51,2.97-5.85.66-2.34.99-4.89.99-7.65,0-4.8-.84-9.96-2.52-15.48-1.68-5.52-4.14-10.92-7.38-16.2-3.24-5.28-7.2-9.78-11.88-13.5Z"/>
    <path class="cls-1" d="M521.36,222.51c-.84.96-1.56.84-2.16-.36-2.28-4.08-4.74-7.86-7.38-11.34v71.82c0,1.08-.54,1.62-1.62,1.62h-15.84c-1.08,0-1.62-.54-1.62-1.62v-69.12l-5.04-4.32c-.84-.84-.96-1.62-.36-2.34l10.08-14.4c.6-.96,1.32-1.08,2.16-.36,2.04,1.56,3.99,3.09,5.85,4.59,1.86,1.5,3.69,3.09,5.49,4.77.6.48.9,1.14.9,1.98v3.42l9.72-14.76c.24-.48.6-.75,1.08-.81.48-.06.9.21,1.26.81,1.68,2.28,3.33,4.68,4.95,7.2,1.62,2.52,3.09,5.04,4.41,7.56.48.72.42,1.5-.18,2.34l-11.7,13.32Z"/>
    <path class="cls-1" d="M537.2,185.07c-.72-.72-.72-1.5,0-2.34l12.42-12.96c.6-.84,1.32-.84,2.16,0l14.04,13.68c.72.6.84,1.32.36,2.16-5.52,11.04-12.72,20.28-21.6,27.72-.72.72-1.32.9-1.8.54-.48-.24-.6-.84-.36-1.8l5.04-18.54-10.26-8.46Z"/>
    <path class="cls-1" d="M597.68,241.41c4.2,4.92,6.3,9.96,6.3,15.12s-2.01,10.11-6.03,15.21c-4.02,5.1-9.75,10.29-17.19,15.57-.84.48-1.62.42-2.34-.18-2.76-3-5.61-5.88-8.55-8.64-2.94-2.76-5.91-5.46-8.91-8.1-.84-.72-.9-1.5-.18-2.34l10.62-11.34c.72-.72,1.5-.72,2.34,0,5.28,4.44,10.32,9.3,15.12,14.58,1.44-1.08,2.16-2.34,2.16-3.78,0-1.92-1.68-4.92-5.04-9l-17.64-21.24c-4.2-5.04-6.3-10.08-6.3-15.12s2.04-10.11,6.12-15.21c4.08-5.1,9.78-10.29,17.1-15.57.96-.6,1.74-.54,2.34.18,2.28,2.52,4.62,4.95,7.02,7.29,2.4,2.34,4.92,4.53,7.56,6.57.72.72.78,1.5.18,2.34l-10.62,11.34c-.6.6-1.38.66-2.34.18-2.16-1.8-4.26-3.72-6.3-5.76-2.04-2.04-4.02-4.08-5.94-6.12-1.68,1.56-2.31,3.3-1.89,5.22.42,1.92,1.95,4.44,4.59,7.56l17.82,21.24Z"/>
  </g>
  <g>
    <path class="cls-3" d="M630.59,168.59c-.72-.6-1.08-1.26-1.08-1.98,0-.96.54-1.44,1.62-1.44h56.16c2.76,0,4.83.81,6.21,2.43,1.38,1.62,2.07,3.45,2.07,5.49,0,1.8-.57,3.45-1.71,4.95-1.14,1.5-2.79,2.25-4.95,2.25-1.68,0-3.18-.45-4.5-1.35-1.32-.9-2.7-1.83-4.14-2.79-1.44-.96-3.06-1.86-4.86-2.7-1.8-.84-4.08-1.26-6.84-1.26h-11.52v34.02l14.76-17.1c.6-.72,1.38-.78,2.34-.18,8.16,5.88,14.31,13.38,18.45,22.5,4.14,9.12,6.21,18.72,6.21,28.8s-1.89,19.23-5.67,28.89-9.57,18.21-17.37,25.65c-.72.72-1.32.9-1.8.54-.48-.48-.54-1.14-.18-1.98,2.76-5.76,4.8-11.61,6.12-17.55,1.32-5.94,1.98-11.79,1.98-17.55,0-7.2-.96-13.98-2.88-20.34-1.92-6.36-4.74-11.88-8.46-16.56-3.72-4.68-8.22-8.04-13.5-10.08v70.56c0,1.08-.54,1.62-1.62,1.62h-19.44c-1.08,0-1.62-.54-1.62-1.62v-104.22c0-4.08-1.26-7.08-3.78-9Z"/>
    <path class="cls-2" d="M730.13,181.91c.72-.6,1.44-.6,2.16,0,7.8,6.72,13.74,14.25,17.82,22.59,4.08,8.34,6.12,16.95,6.12,25.83,0,8.4-1.92,16.71-5.76,24.93-3.84,8.22-9.78,15.69-17.82,22.41-.72.48-1.44.48-2.16,0-7.8-6.72-13.74-14.28-17.82-22.68-4.08-8.4-6.12-16.98-6.12-25.74s1.92-16.86,5.76-25.02c3.84-8.16,9.78-15.6,17.82-22.32ZM722.57,199.91c-2.52,3-3.78,7.44-3.78,13.32,0,4.68.84,9.84,2.52,15.48,1.68,5.64,4.14,11.1,7.38,16.38,3.24,5.28,7.14,9.78,11.7,13.5,1.32-1.56,2.31-3.51,2.97-5.85.66-2.34.99-4.89.99-7.65,0-4.8-.84-9.96-2.52-15.48-1.68-5.52-4.14-10.92-7.38-16.2-3.24-5.28-7.2-9.78-11.88-13.5Z"/>
    <path class="cls-4" d="M798.35,267.41c-.48-.6-.72-1.26-.72-1.98v-2.88l-12.96,14.94c-.6.84-1.38.9-2.34.18l-15.3-10.98c-.72-.6-1.08-1.26-1.08-1.98v-60.66l-5.04-4.32c-.84-.84-.96-1.62-.36-2.34l10.08-14.4c.6-.96,1.32-1.08,2.16-.36,2.04,1.56,3.96,3.09,5.76,4.59,1.8,1.5,3.66,3.09,5.58,4.77.6.48.9,1.14.9,1.98v50.94c0,4.56,1.11,8.01,3.33,10.35,2.22,2.34,5.31,3.87,9.27,4.59v-71.82c0-.96.48-1.56,1.44-1.8l15.48-3.24c1.2-.24,1.8.24,1.8,1.44v72l5.4,4.86c.72.72.78,1.5.18,2.34l-11.7,12.96c-.72.84-1.44.9-2.16.18-1.56-1.44-3.18-2.94-4.86-4.5-1.68-1.56-3.3-3.18-4.86-4.86Z"/>
    <path class="cls-6" d="M862.07,231.95c4.2,4.92,6.3,9.96,6.3,15.12s-2.01,10.11-6.03,15.21c-4.02,5.1-9.75,10.29-17.19,15.57-.84.48-1.62.42-2.34-.18-2.76-3-5.61-5.88-8.55-8.64-2.94-2.76-5.91-5.46-8.91-8.1-.84-.72-.9-1.5-.18-2.34l10.62-11.34c.72-.72,1.5-.72,2.34,0,5.28,4.44,10.32,9.3,15.12,14.58,1.44-1.08,2.16-2.34,2.16-3.78,0-1.92-1.68-4.92-5.04-9l-17.64-21.24c-4.2-5.04-6.3-10.08-6.3-15.12s2.04-10.11,6.12-15.21c4.08-5.1,9.78-10.29,17.1-15.57.96-.6,1.74-.54,2.34.18,2.28,2.52,4.62,4.95,7.02,7.29,2.4,2.34,4.92,4.53,7.56,6.57.72.72.78,1.5.18,2.34l-10.62,11.34c-.6.6-1.38.66-2.34.18-2.16-1.8-4.26-3.72-6.3-5.76-2.04-2.04-4.02-4.08-5.94-6.12-1.68,1.56-2.31,3.3-1.89,5.22.42,1.92,1.95,4.44,4.59,7.56l17.82,21.24Z"/>
    <path class="cls-5" d="M914.98,260.39c.84.12,1.26.36,1.26.72,0,.24-.3.66-.9,1.26l-16.92,15.12c-.84.6-1.62.66-2.34.18-6.24-5.04-11.25-10.95-15.03-17.73-3.78-6.78-6.3-13.89-7.56-21.33-1.26-7.44-1.2-14.79.18-22.05,1.38-7.26,4.11-13.92,8.19-19.98,4.08-6.06,9.48-11.01,16.2-14.85.96-.6,1.74-.42,2.34.54,3.24,4.68,6.39,9.48,9.45,14.4,3.06,4.92,6.09,10.02,9.09,15.3.48.72.42,1.5-.18,2.34l-26.46,27c2.76,4.44,6.03,8.31,9.81,11.61,3.78,3.3,8.07,5.79,12.87,7.47ZM901.85,222.59c-1.92-4.08-3.99-7.92-6.21-11.52-2.22-3.6-4.53-7.2-6.93-10.8-2.28,5.52-3.48,11.22-3.6,17.1-.12,5.88.96,11.22,3.24,16.02l13.5-10.8Z"/>
  </g>
</svg>