<?xml version="1.0" encoding="UTF-8"?>
<svg id="Layer_2" data-name="Layer 2" xmlns="http://www.w3.org/2000/svg" xmlns:xlink="http://www.w3.org/1999/xlink" viewBox="0 0 1497.15 205">
  <defs>
    <style>
      .cls-1 {
        fill: #c1dbb3;
        stroke-width: 4px;
      }

      .cls-1, .cls-2 {
        stroke: #7ebc89;
        stroke-miterlimit: 10;
      }

      .cls-2 {
        fill: url(#radial-gradient);
        stroke-width: 5px;
      }
    </style>
    <radialGradient id="radial-gradient" cx="102.5" cy="102.5" fx="102.5" fy="102.5" r="100" gradientUnits="userSpaceOnUse">
      <stop offset="0" stop-color="#fffd0a"/>
      <stop offset=".76" stop-color="#c1dbb3"/>
      <stop offset="1" stop-color="#c1dbb3"/>
    </radialGradient>
  </defs>
  <g id="Layer_1-2" data-name="Layer 1">
    <path class="cls-2" d="M199.67,199.97c-6.03,6.03-28.02-6.19-49.11-27.28-.34-.34-.68-.68-1.01-1.02-28.55,19.62-66.4,19.88-95.2.79-.4.41-.8.81-1.2,1.21-21.09,21.09-43.08,33.31-49.11,27.28-6.03-6.03,6.19-28.02,27.28-49.11.26-.26.53-.53.79-.79-20.95-29.1-21.31-68.45-1.07-97.91C10.91,32.56-.56,11.5,5.32,5.62s26.89,5.57,47.47,25.67c29.49-20.49,69.04-20.22,98.27.82.26-.27.52-.53.79-.79C172.95,10.23,194.93-1.99,200.96,4.04s-6.19,28.01-27.28,49.11c-.4.4-.81.8-1.21,1.2,19.17,28.92,18.82,66.97-1.04,95.56.32.31.64.64.96.96,21.09,21.09,33.31,43.08,27.28,49.11Z"/>
    <g>
      <path class="cls-1" d="M384.87,126.16l-8.55,7.35c5.9-15.86,12.48-31.91,19.75-48.17,2.71-6.1,4.07-11.13,4.07-15.11,0-2.96-.65-5.5-1.95-7.62-1.3-2.12-4.25-3.18-8.85-3.18-1.69,5.26-2.71,8.72-3.07,10.4-.43,2.17-.94,5.72-1.53,10.67-.75,6.36-1.45,11.13-2.12,14.31-.71,3.23-2.18,7.91-4.42,14.05-2.56,6.89-6.9,17.49-13.03,31.8l-27.42,18.22-9.02-26.77.59-40.48c-3.66,4.11-10.69,13.82-21.11,29.15-5.19,7.64-9.58,14.32-13.18,20.04-3.6,5.72-6.36,10.48-8.29,14.28l-19.4,3.64c.16-11.84.79-23.48,1.89-34.92.86-9.01,1.3-15.72,1.3-20.14,0-7.02-.79-15.68-2.36-25.97-3.03-2.43-6.69-4.71-11-6.86-4.3-2.14-8.93-4.01-13.89-5.6.47-.79,2.81-4.54,7.02-11.23,4.21-6.69,7.39-11.74,9.55-15.14,8.18,2.03,14.92,4.97,20.23,8.81,1.53,1.1,3.23,2.58,5.1,4.44,1.87,1.85,3.71,3.96,5.51,6.33,1.81,2.36,3.54,4.85,5.19,7.45l-7.78,35.18c-1.73,7.82-4.11,21.02-7.13,39.62l20.17-26.17,12.38-15.77c1.18-1.46,2.6-3.32,4.28-5.6,1.67-2.27,3.45-4.7,5.34-7.29,1.89-2.58,3.48-4.78,4.78-6.59,1.3-1.81,2.85-3.98,4.66-6.49l18.63-8.15,7.67,67.25c1.02-2.92,3.38-11.17,7.08-24.78,1.57-5.65,2.69-9.58,3.36-11.79.67-2.21,1.91-6.18,3.71-11.93,2.44-7.51,4.64-13.56,6.6-18.15,1.77-4.24,3.91-8.63,6.43-13.18,2.32-4.11,4.5-7.22,6.55-9.34,2.08-2.12,3.42-3.33,4.01-3.64.59-.31,1.89-.46,3.89-.46,4.64,0,8.57,1.35,11.79,4.04,3.22,2.69,4.84,6.29,4.84,10.8s-.9,8.72-2.71,13.18c-1.81,4.55-5.6,12.01-11.38,22.39-2.71,4.81-5.17,9.29-7.37,13.42-2.2,4.13-3.62,6.81-4.25,8.05-2.04,4.11-4.23,9.32-6.55,15.64Z"/>
      <path class="cls-1" d="M415.82,82.83l13.27-12.65,15.86,1.33c5.11.49,8.73,1.92,10.85,4.31,2.2,2.47,3.3,5.17,3.3,8.08,0,1.28-.16,2.94-.47,4.97-.43,2.38-.88,5.94-1.36,10.67-5.39,3.14-9.47,4.97-12.26,5.5-2.83.53-5.54.79-8.14.79-.98,0-2.2-.11-3.66-.33,3.85,5.39,7.61,8.08,11.26,8.08,4.32,0,8.22-1.83,11.68-5.5h.47c-3.93,13.78-11.2,20.67-21.82,20.67-5.5,0-9.49-.86-11.97-2.58s-4.36-4.22-5.66-7.49c-1.34-3.18-2-9.21-2-18.09l.29-11.33.35-6.43ZM433.63,83.49l-1.53,16.17c3.42,0,7.1-.13,11.03-.4.08-2.92.12-4.31.12-4.17,0-3.75-.88-6.58-2.65-8.48-1.81-1.94-4.13-2.98-6.96-3.11Z"/>
      <path class="cls-1" d="M466.12,82.83l13.27-12.65,15.86,1.33c5.11.49,8.73,1.92,10.85,4.31,2.2,2.47,3.3,5.17,3.3,8.08,0,1.28-.16,2.94-.47,4.97-.43,2.38-.88,5.94-1.36,10.67-5.39,3.14-9.47,4.97-12.26,5.5-2.83.53-5.54.79-8.14.79-.98,0-2.2-.11-3.66-.33,3.85,5.39,7.61,8.08,11.26,8.08,4.32,0,8.22-1.83,11.68-5.5h.47c-3.93,13.78-11.2,20.67-21.82,20.67-5.5,0-9.49-.86-11.97-2.58s-4.36-4.22-5.66-7.49c-1.34-3.18-2-9.21-2-18.09l.29-11.33.35-6.43ZM483.93,83.49l-1.53,16.17c3.42,0,7.1-.13,11.03-.4.08-2.92.12-4.31.12-4.17,0-3.75-.88-6.58-2.65-8.48-1.81-1.94-4.13-2.98-6.96-3.11Z"/>
      <path class="cls-1" d="M518.31,46.19c9.39-3.14,17-4.99,22.82-5.57-3.62,9.67-5.42,27.61-5.42,53.8v15.97c5.66-12.28,8.49-22.37,8.49-30.28,0-1.77-.12-3.53-.35-5.3l17.93-3.71c-.24,3.62-.61,6.56-1.12,8.81-.55,2.56-1.06,4.26-1.53,5.1-.59,1.1-2.14,3.36-4.66,6.76-1.38,1.9-2.69,4.17-3.95,6.82.47-.04.98-.07,1.53-.07,3.73,0,6.98,1.22,9.73,3.64,2.75,2.52,5.68,6.78,8.79,12.79-2.63,3.67-5.02,6.86-7.16,9.57-2.14,2.72-4.18,5.13-6.1,7.25-2.44-7.2-8.14-13.43-17.1-18.68-3.62,7.38-5.5,11.99-5.66,13.85l-18.16,4.44.06-10.87-.12-19.21c0-13.16.17-24.42.5-33.79.33-9.36.83-16.47,1.5-21.33Z"/>
      <path class="cls-1" d="M578.1,46.72l11.56-3.31,8.73-2.65-2.48,48.9-.88,19.21c2.91,2.34,6.19,4.7,9.85,7.09v.46c-4.68,4.9-8.61,9.74-11.79,14.51-5.42-1.28-9.47-3.92-12.15-7.92-2.67-4-4.01-9.38-4.01-16.13,0-2.69.12-7.11.35-13.25.24-5.92.51-21.55.83-46.91Z"/>
      <path class="cls-1" d="M610.12,88.46v-13.71c8.65-.31,15.82-1.66,21.52-4.04l-.83,14.77-.77,17.09c3.69-6.76,6.15-11.88,7.37-15.37,1.3-3.67,2.42-8.77,3.36-15.3,4.8.44,11.64,1.04,20.52,1.79-.71,3.62-1.73,12.37-3.07,26.24l-1.83,21.67c-.55,6.23-1.16,10.69-1.83,13.38-.83,2.96-2.46,6.45-4.89,10.47-2.63,4.33-6.39,9.36-11.26,15.11-12.38-1.28-21.9-4.55-28.54-9.81l-3.36-9.08c1.77-3.23,4.19-7.07,7.25-11.53,2.12,2.92,5.21,4.92,9.26,6.03,4.09,1.15,8.98,2.21,14.68,3.18-.79-10.25-1.18-18.31-1.18-24.18,0-3.62.12-7.91.35-12.85l-13.33,19.28c-1.46,2.03-2.34,4.02-2.65,5.96-3.15-.44-6.11-1.37-8.9-2.78-.35-3.4-.65-6.98-.88-10.73-.24-2.78-.45-6.96-.65-12.52-.2-4.59-.32-8.94-.35-13.05Z"/>
      <path class="cls-1" d="M845.99,126.16l-8.55,7.35c5.9-15.86,12.48-31.91,19.75-48.17,2.71-6.1,4.07-11.13,4.07-15.11,0-2.96-.65-5.5-1.95-7.62-1.3-2.12-4.25-3.18-8.84-3.18-1.69,5.26-2.71,8.72-3.07,10.4-.43,2.17-.94,5.72-1.53,10.67-.75,6.36-1.46,11.13-2.12,14.31-.71,3.23-2.18,7.91-4.42,14.05-2.56,6.89-6.9,17.49-13.03,31.8l-27.42,18.22-9.02-26.77.59-40.48c-3.66,4.11-10.69,13.82-21.11,29.15-5.19,7.64-9.58,14.32-13.18,20.04s-6.36,10.48-8.29,14.28l-19.4,3.64c.16-11.84.79-23.48,1.89-34.92.86-9.01,1.3-15.72,1.3-20.14,0-7.02-.79-15.68-2.36-25.97-3.03-2.43-6.69-4.71-11-6.86-4.3-2.14-8.93-4.01-13.89-5.6.47-.79,2.81-4.54,7.02-11.23,4.21-6.69,7.39-11.74,9.55-15.14,8.18,2.03,14.92,4.97,20.23,8.81,1.53,1.1,3.23,2.58,5.1,4.44s3.71,3.96,5.51,6.33c1.81,2.36,3.54,4.85,5.19,7.45l-7.78,35.18c-1.73,7.82-4.11,21.02-7.13,39.62l20.17-26.17,12.38-15.77c1.18-1.46,2.6-3.32,4.27-5.6,1.67-2.27,3.45-4.7,5.34-7.29,1.89-2.58,3.48-4.78,4.78-6.59,1.3-1.81,2.85-3.98,4.66-6.49l18.63-8.15,7.67,67.25c1.02-2.92,3.38-11.17,7.08-24.78,1.57-5.65,2.69-9.58,3.36-11.79.67-2.21,1.91-6.18,3.71-11.93,2.44-7.51,4.64-13.56,6.6-18.15,1.77-4.24,3.91-8.63,6.43-13.18,2.32-4.11,4.5-7.22,6.54-9.34,2.08-2.12,3.42-3.33,4.01-3.64.59-.31,1.89-.46,3.89-.46,4.64,0,8.57,1.35,11.79,4.04,3.22,2.69,4.83,6.29,4.83,10.8s-.91,8.72-2.71,13.18c-1.81,4.55-5.6,12.01-11.38,22.39-2.71,4.81-5.17,9.29-7.37,13.42-2.2,4.13-3.62,6.81-4.25,8.05-2.04,4.11-4.23,9.32-6.54,15.64Z"/>
      <path class="cls-1" d="M892.04,70.38c.59.18,4.15.95,10.67,2.32,5.9,1.19,9.79,2.12,11.68,2.78,1.85.75,3.6,1.94,5.25,3.58,1.65,1.63,2.89,3.93,3.71,6.89.83,2.92,1.24,6.87,1.24,11.86l-.29,19.48c0,2.3.2,4.99.59,8.08-3.66.66-10.36,2.56-20.11,5.7.71-6.05,1.06-14.38,1.06-24.98-.67,1.24-2.61,3.84-5.84,7.82-3.22,3.97-7.82,9.41-13.8,16.3-4.6-1.37-8.14-2.7-10.61-3.98-.16-1.68-.47-4.28-.94-7.82-.67-5.52-1-10.51-1-14.97,0-6.45,1.2-11.88,3.6-16.3,2.32-4.37,7.25-9.96,14.8-16.76ZM891.8,86.34l1.3,26.04c2.16-2.69,4.3-5.73,6.43-9.11,2.12-3.38,3.93-6.55,5.42-9.51-2.16-3.49-6.54-5.96-13.15-7.42Z"/>
      <path class="cls-1" d="M950.83,69.98c.24,0,3.62.27,10.14.79,7,.49,13.82.73,20.46.73-.04.18-.47,1.83-1.3,4.97-1.38,5.12-2.08,8.92-2.12,11.4-4.6-2.03-13.54-3.69-26.83-4.97,1.89,6.27,8.06,9.41,18.52,9.41,5.5,0,9.28.27,11.32.8,1.97.53,3.52,1.63,4.66,3.31,1.1,1.63,1.65,4,1.65,7.09,0,3.31-.63,6.56-1.89,9.74-1.34,3.18-2.89,5.74-4.66,7.69-1.81,1.99-4.99,3.78-9.55,5.37-4.52,1.59-9.28,2.38-14.27,2.38-8.65,0-15.86-1.99-21.64-5.96.71-2.65,1.79-5.9,3.24-9.74,6.13,3,13.07,4.5,20.82,4.5,4.09,0,7.86-1.28,11.32-3.84-2.4-1.9-5.01-2.85-7.84-2.85-.59,0-1.3.02-2.12.07-1.97.09-3.09.13-3.36.13-7.75,0-13.64-1.3-17.69-3.91-4.05-2.56-6.07-7.02-6.07-13.38,0-5.04,1.22-9.25,3.66-12.65,2.4-3.36,6.92-7.04,13.56-11.06Z"/>
      <path class="cls-1" d="M1000.01,69.51l-.06-5.37c.47-.09,2.34-.31,5.6-.66,5.54-.66,9.67-1.21,12.38-1.66.04.71.06,1.46.06,2.25,0,1.41-.14,3.75-.41,7.02,1.26.13,3.75.2,7.49.2,2.56,0,4.27-.07,5.13-.2-1.06,7.16-1.75,11.37-2.06,12.65-2.63.44-6.27.77-10.91.99-.28,6.54-.41,11-.41,13.38,0,3.84.8,6.91,2.42,9.21,1.57,2.25,4.3,4.02,8.2,5.3l-10.2,17.36c-12.85-3.98-19.28-11.44-19.28-22.39,0-1.81.27-5.3.83-10.47.55-5.34.86-8.94.94-10.8-1.81.04-3.81.29-6.01.73l6.25-12.06v-1.33l.06-4.17Z"/>
      <path class="cls-1" d="M1036.39,82.83l13.27-12.65,15.86,1.33c5.11.49,8.73,1.92,10.85,4.31,2.2,2.47,3.3,5.17,3.3,8.08,0,1.28-.16,2.94-.47,4.97-.43,2.38-.88,5.94-1.36,10.67-5.39,3.14-9.47,4.97-12.26,5.5-2.83.53-5.54.79-8.14.79-.98,0-2.2-.11-3.66-.33,3.85,5.39,7.61,8.08,11.26,8.08,4.32,0,8.22-1.83,11.68-5.5h.47c-3.93,13.78-11.2,20.67-21.82,20.67-5.5,0-9.49-.86-11.97-2.58s-4.36-4.22-5.66-7.49c-1.34-3.18-2-9.21-2-18.09l.29-11.33.35-6.43ZM1054.2,83.49l-1.53,16.17c3.42,0,7.1-.13,11.03-.4.08-2.92.12-4.31.12-4.17,0-3.75-.88-6.58-2.65-8.48-1.81-1.94-4.13-2.98-6.96-3.11Z"/>
      <path class="cls-1" d="M1263.41,126.16l-8.55,7.35c5.9-15.86,12.48-31.91,19.75-48.17,2.71-6.1,4.07-11.13,4.07-15.11,0-2.96-.65-5.5-1.95-7.62-1.3-2.12-4.25-3.18-8.84-3.18-1.69,5.26-2.71,8.72-3.07,10.4-.43,2.17-.94,5.72-1.53,10.67-.75,6.36-1.46,11.13-2.12,14.31-.71,3.23-2.18,7.91-4.42,14.05-2.56,6.89-6.9,17.49-13.03,31.8l-27.42,18.22-9.02-26.77.59-40.48c-3.66,4.11-10.69,13.82-21.11,29.15-5.19,7.64-9.58,14.32-13.18,20.04s-6.36,10.48-8.29,14.28l-19.4,3.64c.16-11.84.79-23.48,1.89-34.92.86-9.01,1.3-15.72,1.3-20.14,0-7.02-.79-15.68-2.36-25.97-3.03-2.43-6.69-4.71-11-6.86-4.3-2.14-8.93-4.01-13.89-5.6.47-.79,2.81-4.54,7.02-11.23,4.21-6.69,7.39-11.74,9.55-15.14,8.18,2.03,14.92,4.97,20.23,8.81,1.53,1.1,3.23,2.58,5.1,4.44s3.71,3.96,5.51,6.33c1.81,2.36,3.54,4.85,5.19,7.45l-7.78,35.18c-1.73,7.82-4.11,21.02-7.13,39.62l20.17-26.17,12.38-15.77c1.18-1.46,2.6-3.32,4.27-5.6,1.67-2.27,3.45-4.7,5.34-7.29,1.89-2.58,3.48-4.78,4.78-6.59,1.3-1.81,2.85-3.98,4.66-6.49l18.63-8.15,7.67,67.25c1.02-2.92,3.38-11.17,7.08-24.78,1.57-5.65,2.69-9.58,3.36-11.79.67-2.21,1.91-6.18,3.71-11.93,2.44-7.51,4.64-13.56,6.6-18.15,1.77-4.24,3.91-8.63,6.43-13.18,2.32-4.11,4.5-7.22,6.54-9.34,2.08-2.12,3.42-3.33,4.01-3.64.59-.31,1.89-.46,3.89-.46,4.64,0,8.57,1.35,11.79,4.04,3.22,2.69,4.83,6.29,4.83,10.8s-.91,8.72-2.71,13.18c-1.81,4.55-5.6,12.01-11.38,22.39-2.71,4.81-5.17,9.29-7.37,13.42-2.2,4.13-3.62,6.81-4.25,8.05-2.04,4.11-4.23,9.32-6.54,15.64Z"/>
      <path class="cls-1" d="M1309.47,70.38c.59.18,4.15.95,10.67,2.32,5.9,1.19,9.79,2.12,11.68,2.78,1.85.75,3.6,1.94,5.25,3.58,1.65,1.63,2.89,3.93,3.71,6.89.83,2.92,1.24,6.87,1.24,11.86l-.29,19.48c0,2.3.2,4.99.59,8.08-3.66.66-10.36,2.56-20.11,5.7.71-6.05,1.06-14.38,1.06-24.98-.67,1.24-2.61,3.84-5.84,7.82-3.22,3.97-7.82,9.41-13.8,16.3-4.6-1.37-8.14-2.7-10.61-3.98-.16-1.68-.47-4.28-.94-7.82-.67-5.52-1-10.51-1-14.97,0-6.45,1.2-11.88,3.6-16.3,2.32-4.37,7.25-9.96,14.8-16.76ZM1309.23,86.34l1.3,26.04c2.16-2.69,4.3-5.73,6.43-9.11,2.12-3.38,3.93-6.55,5.42-9.51-2.16-3.49-6.54-5.96-13.15-7.42Z"/>
      <path class="cls-1" d="M1354.22,69.51l-.06-5.37c.47-.09,2.34-.31,5.6-.66,5.54-.66,9.67-1.21,12.38-1.66.04.71.06,1.46.06,2.25,0,1.41-.14,3.75-.41,7.02,1.26.13,3.75.2,7.49.2,2.56,0,4.27-.07,5.13-.2-1.06,7.16-1.75,11.37-2.06,12.65-2.63.44-6.27.77-10.91.99-.28,6.54-.41,11-.41,13.38,0,3.84.8,6.91,2.42,9.21,1.57,2.25,4.3,4.02,8.2,5.3l-10.2,17.36c-12.85-3.98-19.28-11.44-19.28-22.39,0-1.81.27-5.3.83-10.47.55-5.34.86-8.94.94-10.8-1.81.04-3.81.29-6.01.73l6.25-12.06v-1.33l.06-4.17Z"/>
      <path class="cls-1" d="M1404.93,69.51c7.94.22,13.62.79,17.04,1.72,3.66,1.02,6.68,3.16,9.08,6.43,2.4,3.36,3.6,7.6,3.6,12.72-6.13,1.15-11.93,2.89-17.4,5.23-.9-4.9-3.26-7.91-7.08-9.01-.71,8-1.06,13.49-1.06,16.5,0,2.21.57,4.02,1.71,5.43,1.14,1.41,2.95,2.61,5.42,3.58,2.55,1.06,4.87,1.59,6.96,1.59,3.3,0,6.43-2.16,9.38-6.49l.24.26c-2.28,7.2-5.11,12.46-8.49,15.77-3.34,3.31-8.33,4.97-14.98,4.97-4.95,0-8.94-1.13-11.97-3.38-2.99-2.25-4.99-5.01-6.01-8.28-1.06-3.27-1.59-7.6-1.59-12.99s.2-12.48.59-20.74c4.56-4.77,9.42-9.21,14.57-13.32Z"/>
      <path class="cls-1" d="M1442.02,47.12l19.93-7.02-.59,25.18v16.3l9.49-11.06h.71c8.02,2.78,13.31,5.72,15.86,8.81,2.55,3.14,3.83,8.52,3.83,16.17,0,2.69-.37,7.38-1.12,14.05-.43,3.53-.79,8.55-1.06,15.04-5.74,5.34-12.15,10.42-19.22,15.24,1.73-15.72,2.73-25.82,3.01-30.28l-2.18-15.7c-.2-.97-1.34-4.84-3.42-11.59-2.71,4.02-4.68,6.74-5.9,8.15v16.76c0,.22-.04,1.79-.12,4.7-.12,2.69-.18,4.88-.18,6.56,0,1.37.1,3.98.29,7.82-4.21.18-11.24,1.08-21.11,2.72.59-5.39,1-12.48,1.24-21.27.2-8.83.37-29.02.53-60.56Z"/>
    </g>
  </g>
</svg>